<svg width="461" height="139" viewBox="0 0 461 139" fill="none" xmlns="http://www.w3.org/2000/svg">
<rect width="461" height="139" rx="5" fill="#DB6277"/>
<g filter="url(#filter0_d)">
<path d="M98.5811 79.4756C98.0059 82.3818 96.9766 85.1973 95.4932 87.9219C90.4072 97.2461 83.3535 101.908 74.332 101.908C65.3105 101.908 58.2568 97.2461 53.1709 87.9219C50.2646 82.5938 48.8115 75.5249 48.8115 66.7153C48.8115 57.9058 50.2646 50.8369 53.1709 45.5088C58.2568 36.1846 65.3105 31.5225 74.332 31.5225C83.3838 31.5225 90.4375 36.1846 95.4932 45.5088L88.1367 49.0508H87.6826C84.4131 42.5117 79.9629 39.2422 74.332 39.2422C68.7314 39.2422 64.2812 42.5117 60.9814 49.0508C58.9229 53.1377 57.8936 59.0259 57.8936 66.7153C57.8936 74.4956 58.9229 80.3838 60.9814 84.3799C64.3418 90.9189 68.792 94.1885 74.332 94.1885C79.9326 94.1885 84.3828 90.9189 87.6826 84.3799L98.127 79.4756H98.5811ZM129.351 102.816V96.459C126.747 100.062 123.493 101.878 119.588 101.908C113.927 101.908 109.522 100.198 106.373 96.7769C103.225 93.356 101.651 89.3145 101.651 84.6523C101.651 79.8086 103.361 75.6914 106.782 72.3008C110.082 69.0312 114.35 67.3965 119.588 67.3965C123.311 67.3965 126.505 69.0615 129.169 72.3916C128.624 67.8203 128.064 64.9746 127.489 63.8545C125.461 59.8584 122.736 57.8604 119.315 57.8604H108.735V57.4062L112.186 50.1406H119.315C126.097 50.1406 131.379 53.6372 135.163 60.6304C137.343 64.6265 138.433 69.7578 138.433 76.0244V98.7295L129.805 102.816H129.351ZM110.46 84.5615C110.46 87.2861 111.278 89.5718 112.912 91.4185C114.578 93.2651 116.818 94.1885 119.633 94.1885C122.418 94.1885 124.749 93.2349 126.626 91.3276C128.382 89.5415 129.26 87.3467 129.26 84.7432C129.26 82.0186 128.322 79.7329 126.445 77.8862C124.568 76.0396 122.312 75.1162 119.679 75.1162C116.863 75.1162 114.608 76.0547 112.912 77.9316C111.278 79.7783 110.46 81.9883 110.46 84.5615ZM149.677 102.816V34.7012L158.304 30.6143H158.759V68.4409L176.196 49.2324H176.65L184.642 53.0015L171.11 66.8516C175.47 67.4268 179.012 68.8345 181.736 71.0747C185.49 74.1626 187.367 78.5068 187.367 84.1074C187.367 88.4365 186.277 92.0693 184.097 95.0059C181.161 99.002 177.241 101.605 172.336 102.816H171.882L168.476 96.0503C172.503 94.8394 175.137 93.4165 176.378 91.7817C177.649 90.0864 178.285 87.5283 178.285 84.1074C178.285 80.626 177.331 78.083 175.424 76.4785C173.547 74.8438 171.246 74.0264 168.522 74.0264C165.797 74.0264 163.481 74.8438 161.574 76.4785C159.697 78.1133 158.759 80.6562 158.759 84.1074V98.7295L150.131 102.816H149.677ZM233.94 83.8804C233.395 86.7563 232.532 89.269 231.351 91.4185C227.507 98.4116 222.209 101.908 215.458 101.908C208.798 101.908 203.515 98.4116 199.61 91.4185C197.43 87.5132 196.34 82.3818 196.34 76.0244C196.34 69.7578 197.43 64.6265 199.61 60.6304C203.394 53.6372 208.676 50.1406 215.458 50.1406C222.209 50.1406 227.491 53.6221 231.306 60.585C232.244 62.3105 233.001 64.3237 233.576 66.6245L207.238 88.0581C209.267 92.145 212.037 94.1885 215.549 94.1885C218.969 94.1885 221.664 92.1904 223.632 88.1943L233.486 83.8804H233.94ZM205.513 79.521L223.632 63.8545C221.664 59.8584 218.939 57.8604 215.458 57.8604C212.037 57.8604 209.312 59.8584 207.284 63.8545C206.043 66.3369 205.422 70.3936 205.422 76.0244C205.422 77.2656 205.452 78.4312 205.513 79.521ZM242.913 76.0244C242.913 69.7275 244.003 64.5962 246.182 60.6304C249.966 53.6372 255.249 50.1406 262.03 50.1406C265.966 50.1406 269.326 51.73 272.111 54.9087V34.7012L280.739 30.6143H281.193V76.0244C281.193 82.3213 280.104 87.4526 277.924 91.4185C274.079 98.4116 268.781 101.908 262.03 101.908C255.37 101.908 250.087 98.4116 246.182 91.4185C244.003 87.5132 242.913 82.3818 242.913 76.0244ZM251.995 76.0244C251.995 81.7158 252.615 85.7725 253.857 88.1943C255.915 92.1904 258.64 94.1885 262.03 94.1885C265.451 94.1885 268.176 92.1904 270.204 88.1943C271.476 85.6816 272.111 81.625 272.111 76.0244C272.111 70.4238 271.476 66.3672 270.204 63.8545C268.206 59.8887 265.482 57.9058 262.03 57.9058C258.579 57.9058 255.855 59.9189 253.857 63.9453C252.615 66.458 251.995 70.4844 251.995 76.0244ZM302.473 63.8999C301.262 66.3521 300.656 70.3936 300.656 76.0244C300.656 81.6553 301.277 85.7119 302.518 88.1943C304.516 92.1904 307.241 94.1885 310.692 94.1885C314.143 94.1885 316.868 92.1904 318.866 88.1943C320.137 85.6816 320.773 81.625 320.773 76.0244C320.773 70.4238 320.137 66.3672 318.866 63.8545C316.898 59.8584 314.173 57.8604 310.692 57.8604C307.21 57.8604 304.471 59.8735 302.473 63.8999ZM291.574 76.0244C291.574 69.7275 292.664 64.5962 294.844 60.6304C298.628 53.6372 303.911 50.1406 310.692 50.1406C317.473 50.1406 322.756 53.6372 326.54 60.6304C328.75 64.6567 329.855 69.7881 329.855 76.0244C329.855 82.3516 328.765 87.4829 326.585 91.4185C322.741 98.4116 317.443 101.908 310.692 101.908C304.032 101.908 298.749 98.4116 294.844 91.4185C292.664 87.5132 291.574 82.3818 291.574 76.0244ZM368.072 102.816V76.0244C368.072 70.4844 367.452 66.4277 366.21 63.8545C364.273 59.8584 361.548 57.8604 358.037 57.8604C354.616 57.8604 351.891 59.8584 349.863 63.8545C348.591 66.4277 347.955 70.4844 347.955 76.0244C347.955 80.9893 348.591 85.0459 349.863 88.1943C351.467 92.1299 354.101 94.7485 357.764 96.0503L354.358 102.816H353.904C348.697 100.758 344.777 96.9585 342.143 91.4185C339.963 86.8472 338.873 81.7158 338.873 76.0244C338.873 69.7881 339.963 64.6567 342.143 60.6304C345.957 53.6372 351.255 50.1406 358.037 50.1406C364.061 50.1406 368.92 52.9258 372.613 58.4961C376.307 52.9258 381.165 50.1406 387.19 50.1406C393.971 50.1406 399.269 53.6372 403.083 60.6304C405.263 64.6567 406.353 69.7881 406.353 76.0244C406.353 81.8369 405.263 86.9683 403.083 91.4185C400.45 96.9585 396.529 100.758 391.322 102.816H390.868L387.462 96.0503C391.125 94.7485 393.759 92.1299 395.364 88.1943C396.635 85.0459 397.271 80.9893 397.271 76.0244C397.271 70.4844 396.635 66.4277 395.364 63.8545C393.366 59.8584 390.641 57.8604 387.19 57.8604C383.739 57.8604 381.014 59.8584 379.016 63.8545C377.775 66.3672 377.154 70.4238 377.154 76.0244V98.7295L368.526 102.816H368.072Z" fill="white"/>
</g>
<defs>
<filter id="filter0_d" x="40.8115" y="23.6143" width="373.541" height="88.2021" filterUnits="userSpaceOnUse" color-interpolation-filters="sRGB">
<feFlood flood-opacity="0" result="BackgroundImageFix"/>
<feColorMatrix in="SourceAlpha" type="matrix" values="0 0 0 0 0 0 0 0 0 0 0 0 0 0 0 0 0 0 127 0"/>
<feOffset dy="1"/>
<feGaussianBlur stdDeviation="4"/>
<feColorMatrix type="matrix" values="0 0 0 0 0.329167 0 0 0 0 0.329167 0 0 0 0 0.329167 0 0 0 0.1 0"/>
<feBlend mode="normal" in2="BackgroundImageFix" result="effect1_dropShadow"/>
<feBlend mode="normal" in="SourceGraphic" in2="effect1_dropShadow" result="shape"/>
</filter>
</defs>
</svg>
